<svg width="44" height="33" xmlns="http://www.w3.org/2000/svg">

 <g>
  <title>Layer 1</title>
  <ellipse ry="4.37259" rx="4.08742" id="svg_1" cy="28.52021" cx="32.48364" stroke="#000" fill="#fff"/>
  <ellipse stroke="#000" ry="4.37259" rx="4.08742" id="svg_2" cy="28.52021" cx="32.48364" fill="#fff"/>
  <ellipse ry="4.37259" rx="4.08742" id="svg_6" cy="28.52021" cx="27.16049" stroke="#000" fill="#fff"/>
  <ellipse ry="4.37259" rx="4.08742" id="svg_7" cy="28.52021" cx="22.02746" stroke="#000" fill="#fff"/>
  <ellipse ry="4.37259" rx="4.08742" id="svg_8" cy="28.13998" cx="16.70431" stroke="#000" fill="#fff"/>
  <ellipse ry="4.37259" rx="4.08742" id="svg_9" cy="23.7674" cx="12.14161" stroke="#000" fill="#fff"/>
  <ellipse ry="4.37259" rx="4.08742" id="svg_10" cy="18.63436" cx="10.24049" stroke="#000" fill="#fff"/>
  <ellipse stroke="#000" ry="6.9391" rx="6.84405" id="svg_11" cy="10.93481" cx="9.76521" fill="#fff"/>
  <ellipse ry="0.95056" rx="1.04562" id="svg_19" cy="9.12874" cx="7.57891" stroke="#000" fill="none"/>
  <ellipse ry="0.95056" rx="1.04562" id="svg_20" cy="9.12874" cx="13.28229" stroke="#000" fill="none"/>
  <path stroke="#000" id="svg_24" d="m6.24932,13.35321c4.04581,1.86889 4.17225,2.02145 7.45947,-0.1907" opacity="NaN" fill="none"/>
  <path id="svg_28" d="m13.40934,5.28033" opacity="NaN" stroke="#000" fill="none"/>
  <path id="svg_30" d="m13.16553,4.79272c1.95045,-4.38851 3.65709,-5.85135 5.24183,-4.0228" opacity="NaN" stroke="#000" fill="none"/>
  <path id="svg_31" d="m5.97325,5.52414c-2.19426,-4.26661 -4.0228,-5.48564 -5.97325,-3.53519" opacity="NaN" stroke="#000" fill="none"/>
  <line stroke="#000" id="svg_32" y2="11.799" x2="33.59907" y1="1.5903" x1="33.6276" fill="none"/>
  <path id="svg_37" d="m40.24625,1.69032c-0.09337,10.02173 -0.28011,11.17329 2.14751,8.68342" opacity="NaN" stroke="#000" fill="none"/>
  <path id="svg_38" d="m43.54533,1.59695c-13.81878,0.03112 -13.00957,-0.59134 -14.13001,1.21381" opacity="NaN" stroke="#000" fill="none"/>
 </g>
</svg>